<svg xmlns="http://www.w3.org/2000/svg" viewBox="0 0 1445 258.1"><title>Asset 2</title><g id="Layer_2" data-name="Layer 2"><g id="Layer_1-2" data-name="Layer 1"><path d="M494.3,35.3V65.4H472.5V90.2h21.8v50.4c0,29.1,16.6,43.5,41.9,42.6a64,64,0,0,0,23.9-5l-8-24.6a33.81,33.81,0,0,1-14,3.6c-9,0-15.1-5.4-15.1-16.6V90.2h32.4V65.4H523.2V32.2ZM462.6,181.8V120.5c0-36.7-22-57.3-49.5-57.3-14.7,0-26.5,5.9-38.3,17.5l-1.9-15.9H347.1V181.7h28.6V122.1c0-17.7,12.1-32.7,29.8-32.7,18.5,0,28.2,13.5,28.2,31.2v61.1h28.9ZM260.3,88.1c45.4,0,45.4,70.8,0,70.8-19.2,0-34.5-13.2-34.5-35.5s15.3-35.3,34.5-35.3m34.5-6.9c-6.6-11.6-21.5-18.9-37.2-18.9-34.1-.2-60.8,20.8-60.8,61.1,0,40.9,25.6,62.2,60.1,62,13-.2,31.2-6.9,37.9-20.6l1.4,17h27.2V65.1H295.7Zm-149-49c0,22.5,34.1,22.5,34.1,0s-34.1-22.4-34.1,0m31.4,149.6H148.3V64.7h28.9Z"/><path d="M63.6,91.4c17.8,0,32.6,14.2,32.6,36.6s-14.8,36.1-32.6,36.1c-18.1,0-32.8-13.4-32.8-36.1S45.6,91.4,63.6,91.4M92.4,69.6c-8.7-6.1-18.8-7.4-28.8-7.4C28.5,62.2,0,87.5,0,128.1s24.4,65.4,63.6,65.4a66.21,66.21,0,0,0,41.7-15.2c12.3-10,21.6-28.2,21.7-50.2.1-14.2-3.6-27.2-13.2-38.5l14.4-19.1v-.1Z"/><path d="M129.7,225l-18.6-20.8s-17.4,15-46.7,14.7c-31.3-.4-49-15.4-49-15.4L1.5,225.1S23.1,244,64.6,244.4c41.9.2,65.1-19.4,65.1-19.4"/><path d="M670.3,165.5a5.82,5.82,0,0,1-2.4-4.8,6.17,6.17,0,0,1,6.1-6.3,5.48,5.48,0,0,1,3.8,1.4c10.6,9,21.2,13.3,35.4,13.3,15.1,0,25-8,25-19.1v-.3c0-10.4-5.6-16.4-29.2-21.3-25.8-5.6-37.7-14-37.7-32.4v-.3c0-17.6,15.6-30.6,36.9-30.6,14.8,0,25.5,3.7,35.8,11.1a6.45,6.45,0,0,1,2.7,5.1,6.06,6.06,0,0,1-6.1,6.1,6,6,0,0,1-3.7-1.1c-9.5-6.9-18.6-9.8-29-9.8-14.6,0-23.9,8-23.9,18.1v.3c0,10.6,5.8,16.5,30.5,21.8,25,5.5,36.6,14.6,36.6,31.8v.3c0,19.2-16,31.8-38.3,31.8C696.5,180.6,682.8,175.5,670.3,165.5Z"/><path d="M775.2,132V72.3a6.35,6.35,0,1,1,12.7,0v58.9c0,24.2,13,37.9,34.3,37.9,20.7,0,33.8-12.5,33.8-37V72.4a6.35,6.35,0,1,1,12.7,0v58.7c0,32.7-18.8,49.7-46.8,49.7C794.1,180.8,775.2,163.8,775.2,132Z"/><path d="M898.7,73.2a6.43,6.43,0,0,1,6.3-6.4h35.8c25.3,0,42,13.5,42,35.6v.3c0,24.2-20.2,36.7-44.1,36.7H911.4v34a6.35,6.35,0,1,1-12.7,0V73.2Zm40.4,54.7c18.6,0,30.8-9.9,30.8-24.7v-.3c0-16-12-24.4-30.2-24.4H911.3v49.4Z"/><path d="M1005.8,73.2a6.43,6.43,0,0,1,6.3-6.4h35.8c25.3,0,42,13.5,42,35.6v.3c0,24.2-20.2,36.7-44.1,36.7h-27.3v34a6.35,6.35,0,1,1-12.7,0Zm40.5,54.7c18.6,0,30.8-9.9,30.8-24.7v-.3c0-16-12-24.4-30.2-24.4h-28.4v49.4Z"/><path d="M1108,123.2v-.3c0-31,23.3-58.1,57.4-58.1s57.1,26.8,57.1,57.7v.3c0,31-23.3,58.1-57.4,58.1S1108,154.2,1108,123.2Zm101.4,0v-.3c0-25.5-18.6-46.4-44.3-46.4s-43.9,20.5-43.9,46v.3c0,25.5,18.6,46.4,44.3,46.4S1209.4,148.7,1209.4,123.2Z"/><path d="M1249.3,73.2a6.43,6.43,0,0,1,6.3-6.4h42c13.8,0,24.9,4.2,31.9,11.2a30.88,30.88,0,0,1,8.7,22.1v.3c0,18.4-12.5,29.2-30,32.6l27.9,35.9a6.79,6.79,0,0,1,2.1,4.7,6.63,6.63,0,0,1-6.4,6.3,7.07,7.07,0,0,1-5.9-3.4l-31.6-41.1H1262v38a6.35,6.35,0,1,1-12.7,0V73.2Zm47.2,50.8c16.8,0,28.9-8.7,28.9-23.1v-.3c0-13.8-10.6-22.1-28.7-22.1H1262V124Z"/><path d="M1393.8,78.5h-32.6a5.89,5.89,0,0,1-5.9-5.8,6,6,0,0,1,5.9-5.9h77.9a6,6,0,0,1,5.9,5.9,5.89,5.89,0,0,1-5.9,5.8h-32.6v94.9a6.4,6.4,0,0,1-12.8,0V78.5Z"/><rect x="609.3" width="10.5" height="258.1"/></g></g></svg>